<?xml version="1.0" encoding="utf-8"?>
<!-- Generator: Adobe Illustrator 22.0.1, SVG Export Plug-In . SVG Version: 6.00 Build 0)  -->
<svg version="1.1" id="レイヤー_1" xmlns="http://www.w3.org/2000/svg" xmlns:xlink="http://www.w3.org/1999/xlink" x="0px"
	 y="0px" viewBox="0 0 1024 1024" style="enable-background:new 0 0 1024 1024;" xml:space="preserve">
<style type="text/css">
	.st0{fill:#EABF2A;}
	.st1{fill:#F9E298;}
</style>
<g>
	<g>
		<path class="st0" d="M598.2,56.1H66.4c-19.3,0-35,15.7-35,35v841.8c0,19.3,15.7,35,35,35h531.8c19.3,0,35-15.7,35-35V91.1
			C633.2,71.8,617.5,56.1,598.2,56.1z M563.2,897.9H101.4V126.1h461.8V897.9z"/>
		
			<rect x="-53.6" y="281.1" transform="matrix(-1.836970e-16 1 -1 -1.836970e-16 844.3185 179.6815)" class="st1" width="771.8" height="461.8"/>
		<circle class="st1" cx="332.3" cy="92.8" r="15"/>
	</g>
	<path class="st0" d="M955.8,967.9H737.1c-19.3,0-35-15.7-35-35V464.4c0-19.3,15.7-35,35-35h218.7c19.3,0,35,15.7,35,35v468.5
		C990.8,952.2,975.1,967.9,955.8,967.9z"/>
	<path class="st0" d="M957.6,967.9H738.9c-19.3,0-35-15.7-35-35V464.4c0-19.3,15.7-35,35-35h218.7c19.3,0,35,15.7,35,35v468.5
		C992.6,952.2,976.9,967.9,957.6,967.9z"/>
	
		<rect x="626.8" y="589.3" transform="matrix(-1.836970e-16 1 -1 -1.836970e-16 1546.9083 -149.5958)" class="st1" width="442.8" height="218.7"/>
	<g>
		<circle class="st1" cx="808.7" cy="453.8" r="9.4"/>
		<path class="st1" d="M887.8,463.2h-49.6c-5.2,0-9.4-4.2-9.4-9.4l0,0c0-5.2,4.2-9.4,9.4-9.4h49.6c5.2,0,9.4,4.2,9.4,9.4l0,0
			C897.2,459,892.9,463.2,887.8,463.2z"/>
	</g>
</g>
</svg>
