<?xml version="1.0" encoding="UTF-8" standalone="no"?>
<!DOCTYPE svg PUBLIC "-//W3C//DTD SVG 1.1//EN" "http://www.w3.org/Graphics/SVG/1.1/DTD/svg11.dtd">
<svg width="100%" height="100%" viewBox="0 0 3807 504" version="1.1" xmlns="http://www.w3.org/2000/svg" xmlns:xlink="http://www.w3.org/1999/xlink" xml:space="preserve" xmlns:serif="http://www.serif.com/" style="fill-rule:evenodd;clip-rule:evenodd;stroke-linejoin:round;stroke-miterlimit:2;">
    <g transform="matrix(1,0,0,1,0,-1465.45)">
        <g id="アートボード5" transform="matrix(1.98254,0,0,0.492188,-4004.74,872.272)">
            <rect x="2020" y="1205.18" width="1920" height="1024" style="fill:none;"/>
            <clipPath id="_clip1">
                <rect x="2020" y="1205.18" width="1920" height="1024"/>
            </clipPath>
            <g clip-path="url(#_clip1)">
                <g transform="matrix(0.378186,0,0,1.55218,437.556,889.024)">
                    <g transform="matrix(1.01893,0,0,1,-76.4751,1.03029e-13)">
                        <path d="M4205.26,410.196L4343.7,410.196C4353.95,410.196 4362.28,418.521 4362.28,428.774L4362.28,827.175C4255.11,772.665 4181.62,661.327 4181.62,532.96C4181.62,489.575 4190.02,448.135 4205.26,410.196L4205.26,410.196Z" style="fill:rgb(31,27,21);"/>
                    </g>
                    <g transform="matrix(1.01893,0,0,1,-76.4751,1.03029e-13)">
                        <path d="M4805.16,683.206C4750.47,789.806 4639.44,862.819 4511.48,862.819C4468.1,862.819 4426.66,854.427 4388.72,839.182C4388.72,839.182 4388.72,701.784 4388.72,701.784C4388.72,691.531 4397.04,683.206 4407.3,683.206L4805.16,683.206L4805.16,683.206Z" style="fill:rgb(31,27,21);"/>
                    </g>
                    <g transform="matrix(1.01893,0,0,1,-76.4751,1.03029e-13)">
                        <path d="M4660.75,238.777C4767.88,293.289 4841.34,404.613 4841.34,532.96C4841.34,576.345 4832.95,617.785 4817.7,655.724C4817.7,655.724 4679.33,655.724 4679.33,655.724C4669.07,655.724 4660.75,647.4 4660.75,637.146L4660.75,238.777Z" style="fill:rgb(31,27,21);"/>
                    </g>
                    <g transform="matrix(1.01893,0,0,1,-76.4751,1.03029e-13)">
                        <path d="M4217.28,383.735C4271.78,276.585 4383.12,203.101 4511.48,203.101C4554.72,203.101 4596.03,211.437 4633.88,226.59C4633.88,226.59 4633.88,365.157 4633.88,365.157C4633.88,375.41 4625.55,383.735 4615.3,383.735L4217.28,383.735L4217.28,383.735Z" style="fill:rgb(31,27,21);"/>
                    </g>
                    <g transform="matrix(4.07572,0,0,4,4389.98,404.96)">
                        <path d="M62.691,5.953L62.691,58.047C62.691,60.61 60.61,62.691 58.047,62.691C58.047,62.691 5.953,62.691 5.953,62.691C3.39,62.691 1.309,60.61 1.309,58.047C1.309,58.047 1.309,5.953 1.309,5.953C1.309,3.39 3.39,1.309 5.953,1.309L58.047,1.309C60.61,1.309 62.691,3.39 62.691,5.953Z" style="fill:rgb(244,196,30);"/>
                    </g>
                </g>
                <g transform="matrix(0.992816,0,0,3.99909,176.894,388.071)">
                    <g transform="matrix(4,0,0,4,2171.99,204.324)">
                        <path d="M64,5.953C64,2.668 61.332,0 58.047,0L5.953,0C2.668,0 0,2.668 0,5.953L0,58.047C0,61.332 2.668,64 5.953,64L58.047,64C61.332,64 64,61.332 64,58.047L64,5.953Z" style="fill:rgb(244,196,30);"/>
                    </g>
                    <g transform="matrix(4,0,0,4,2443.99,204.324)">
                        <path d="M64,5.953C64,2.668 61.332,0 58.047,0L5.953,0C2.668,0 0,2.668 0,5.953L0,58.047C0,61.332 2.668,64 5.953,64L58.047,64C61.332,64 64,61.332 64,58.047L64,5.953Z" style="fill:rgb(31,27,21);"/>
                    </g>
                    <g transform="matrix(4,0,0,4,2715.99,204.324)">
                        <path d="M64,5.953C64,2.668 61.332,0 58.047,0L5.953,0C2.668,0 0,2.668 0,5.953L0,58.047C0,61.332 2.668,64 5.953,64L58.047,64C61.332,64 64,61.332 64,58.047L64,5.953Z" style="fill:rgb(31,27,21);"/>
                    </g>
                    <g transform="matrix(4,0,0,4,3259.99,204.324)">
                        <path d="M64,5.953C64,2.668 61.332,0 58.047,0L5.953,0C2.668,0 0,2.668 0,5.953L0,58.047C0,61.332 2.668,64 5.953,64L58.047,64C61.332,64 64,61.332 64,58.047L64,5.953Z" style="fill:rgb(31,27,21);"/>
                    </g>
                    <g transform="matrix(4,0,0,4,3532.01,204.324)">
                        <path d="M64,5.953C64,2.668 61.332,0 58.047,0L5.953,0C2.668,0 0,2.668 0,5.953L0,58.047C0,61.332 2.668,64 5.953,64L58.047,64C61.332,64 64,61.332 64,58.047L64,5.953Z" style="fill:rgb(31,27,21);"/>
                    </g>
                    <g transform="matrix(4,0,0,4,2987.99,204.324)">
                        <path d="M64,5.953C64,2.668 61.332,0 58.047,0L5.953,0C2.668,0 0,2.668 0,5.953L0,58.047C0,61.332 2.668,64 5.953,64L58.047,64C61.332,64 64,61.332 64,58.047L64,5.953Z" style="fill:rgb(31,27,21);"/>
                    </g>
                    <g transform="matrix(1,0,0,1,-4.40536e-13,-9.67745)">
                        <path d="M2235.47,421.901L2235.47,306.192C2235.47,306.192 2287.73,368.501 2287.73,368.501C2290.78,372.135 2295.28,374.229 2300.03,374.218C2304.77,374.208 2309.26,372.093 2312.3,368.445L2363.77,306.504C2363.77,306.504 2363.77,421.901 2363.77,421.901C2363.77,430.732 2370.94,437.901 2379.77,437.901C2388.6,437.901 2395.77,430.732 2395.77,421.901L2395.77,262.219C2395.77,255.478 2391.55,249.461 2385.21,247.171C2378.87,244.88 2371.78,246.808 2367.47,251.992L2299.93,333.254C2299.93,333.254 2231.73,251.936 2231.73,251.936C2227.41,246.782 2220.32,244.883 2214,247.183C2207.68,249.483 2203.47,255.492 2203.47,262.219L2203.47,421.901C2203.47,430.732 2210.64,437.901 2219.47,437.901C2228.3,437.901 2235.47,430.732 2235.47,421.901Z" style="fill:rgb(31,27,21);"/>
                    </g>
                    <g transform="matrix(0.831682,0,0,0.831682,659.131,47.9459)">
                        <circle cx="2299.99" cy="342.002" r="96" style="fill:rgb(31,27,21);"/>
                    </g>
                    <g transform="matrix(0.831682,0,0,0.831682,659.131,47.9459)">
                        <path d="M2299.99,226.764C2236.39,226.764 2184.75,278.4 2184.75,342.002C2184.75,405.603 2236.39,457.24 2299.99,457.24C2363.59,457.24 2415.23,405.603 2415.23,342.002C2415.23,278.4 2363.59,226.764 2299.99,226.764ZM2299.99,265.24C2342.36,265.24 2376.75,299.636 2376.75,342.002C2376.75,384.368 2342.36,418.764 2299.99,418.764C2257.62,418.764 2223.23,384.368 2223.23,342.002C2223.23,299.636 2257.62,265.24 2299.99,265.24Z" style="fill:white;"/>
                    </g>
                    <g transform="matrix(1,0,0,1,-4.40536e-13,-9.67745)">
                        <path d="M2905.27,393.225C2890.62,410.746 2868.6,421.901 2843.99,421.901C2799.93,421.901 2764.15,386.126 2764.15,342.06C2764.15,297.994 2799.93,262.219 2843.99,262.219C2868.45,262.219 2890.36,273.242 2905.01,290.588" style="fill:rgb(31,27,21);"/>
                    </g>
                    <g transform="matrix(1,0,0,1,-4.40536e-13,-9.67745)">
                        <path d="M2892.99,382.963C2881.28,396.975 2863.67,405.901 2843.99,405.901C2808.76,405.901 2780.15,377.295 2780.15,342.06C2780.15,306.825 2808.76,278.219 2843.99,278.219C2863.55,278.219 2881.07,287.04 2892.78,300.912C2898.48,307.658 2908.59,308.509 2915.33,302.811C2922.08,297.113 2922.93,287.01 2917.23,280.264C2899.65,259.444 2873.35,246.219 2843.99,246.219C2791.09,246.219 2748.15,289.164 2748.15,342.06C2748.15,394.956 2791.09,437.901 2843.99,437.901C2873.53,437.901 2899.96,424.518 2917.54,403.487C2923.2,396.712 2922.3,386.613 2915.53,380.95C2908.75,375.286 2898.65,376.188 2892.99,382.963Z" style="fill:white;"/>
                    </g>
                    <g transform="matrix(0.831682,0,0,0.831682,1203.13,47.8878)">
                        <circle cx="2299.99" cy="342.002" r="96" style="fill:rgb(31,27,21);"/>
                    </g>
                    <g transform="matrix(0.831682,0,0,0.831682,1203.13,47.8878)">
                        <path d="M2299.99,226.764C2236.39,226.764 2184.75,278.4 2184.75,342.002C2184.75,405.603 2236.39,457.24 2299.99,457.24C2363.59,457.24 2415.23,405.603 2415.23,342.002C2415.23,278.4 2363.59,226.764 2299.99,226.764ZM2299.99,265.24C2342.36,265.24 2376.75,299.636 2376.75,342.002C2376.75,384.368 2342.36,418.764 2299.99,418.764C2257.62,418.764 2223.23,384.368 2223.23,342.002C2223.23,299.636 2257.62,265.24 2299.99,265.24Z" style="fill:white;"/>
                    </g>
                    <g transform="matrix(0.831682,0,0,0.831682,1475.13,47.8878)">
                        <circle cx="2299.99" cy="342.002" r="96" style="fill:rgb(31,27,21);"/>
                    </g>
                    <g transform="matrix(1,0,0,1,1.42109e-14,-80.3485)">
                        <path d="M3292.15,412.731L3292.15,412.731L3292.15,540.731L3324.15,540.731L3324.15,484.132C3341.1,499.292 3363.48,508.514 3387.99,508.514C3440.89,508.514 3483.83,465.569 3483.83,412.673C3483.83,359.777 3440.89,316.831 3387.99,316.831C3335.09,316.831 3292.15,359.777 3292.15,412.673L3292.15,412.731ZM3387.99,348.831C3423.23,348.831 3451.83,377.438 3451.83,412.673C3451.83,447.908 3423.23,476.514 3387.99,476.514C3352.76,476.514 3324.15,447.908 3324.15,412.673C3324.15,377.438 3352.76,348.831 3387.99,348.831Z" style="fill:white;"/>
                    </g>
                    <g transform="matrix(1,0,0,1,1360.39,-9.67745)">
                        <path d="M2233.76,429.047C2233.76,429.047 2276.78,343.737 2299.93,297.827C2299.93,297.827 2365.46,428.994 2365.46,428.994C2369.41,436.894 2379.03,440.103 2386.93,436.156C2394.83,432.209 2398.03,422.591 2394.09,414.692L2314.3,255.009C2311.6,249.596 2306.07,246.172 2300.02,246.16C2293.97,246.149 2288.43,249.553 2285.7,254.956L2205.18,414.639C2201.21,422.524 2204.38,432.154 2212.27,436.13C2220.15,440.106 2229.78,436.932 2233.76,429.047Z" style="fill:white;"/>
                    </g>
                </g>
            </g>
        </g>
    </g>
</svg>
